<?xml version="1.0" encoding="utf-8"?>
<!-- Svg Vector Icons : http://www.onlinewebfonts.com/icon -->
<!DOCTYPE svg PUBLIC "-//W3C//DTD SVG 1.1//EN" "http://www.w3.org/Graphics/SVG/1.1/DTD/svg11.dtd">
<svg version="1.1" xmlns="http://www.w3.org/2000/svg" xmlns:xlink="http://www.w3.org/1999/xlink" x="0px" y="0px" viewBox="0 0 1000 1000" enable-background="new 0 0 1000 1000" xml:space="preserve">
<metadata> Svg Vector Icons : http://www.onlinewebfonts.com/icon </metadata>
<g><path d="M453.5,331.4c-67.4,0-122,54.6-122,122c0,67.4,54.6,122,122,122c67.4,0,122-54.6,122-122C575.5,386.1,520.9,331.4,453.5,331.4z"/><path d="M500,10C229.4,10,10,229.4,10,500c0,270.6,219.4,490,490,490c270.6,0,490-219.4,490-490C990,229.4,770.6,10,500,10z M738.6,703.7l-34.9,34.9c-6.4,6.4-16.8,6.4-23.3,0l-69.8-69.8c-6.4-6.4-6.4-16.8,0-23.3l1.9-1.9l-32.8-32.8c-0.8-0.8-1.3-1.9-1.9-2.8c-34.1,27.4-77.3,43.9-124.4,43.9c-109.6,0-198.5-88.8-198.5-198.5C255,343.9,343.8,255,453.5,255c109.6,0,198.5,88.9,198.5,198.5c0,47.1-16.5,90.3-43.9,124.4c1,0.6,2,1,2.8,1.9l32.8,32.8l1.9-1.9c6.4-6.4,16.8-6.4,23.3,0l69.8,69.8C745,686.8,745,697.3,738.6,703.7z"/></g>
</svg>